<svg xmlns="http://www.w3.org/2000/svg" xmlns:xlink="http://www.w3.org/1999/xlink" viewBox="0 0 2160 2160" width="2160" height="2160" preserveAspectRatio="xMidYMid meet" style="width: 100%; height: 100%; transform: translate3d(0px, 0px, 0px); content-visibility: visible;"><defs><clipPath id="__lottie_element_9616"><rect width="2160" height="2160" x="0" y="0"></rect></clipPath></defs><g clip-path="url(#__lottie_element_9616)"><g transform="matrix(1,0,0,1,847.5569458007812,655.8309936523438)" opacity="1" style="display: block;"><g opacity="1" transform="matrix(1,0,0,1,232.58599853515625,322.58599853515625)"><path stroke-linecap="round" stroke-linejoin="round" fill-opacity="0" stroke-dasharray=" 40 60" stroke-dashoffset="453.499755859375" stroke="rgb(41,51,87)" stroke-opacity="1" stroke-width="31.941" d=" M210,300 C210,300 -210,300 -210,300 C-210,300 -210,-300 -210,-300 C-210,-300 210,-300 210,-300 C210,-300 210,300 210,300z"></path></g></g><g transform="matrix(1,0,0,1,180.1429443359375,963.4169921875)" opacity="1" style="display: block;"><g opacity="1" transform="matrix(1,0,0,1,952.5,375)"><path fill="rgb(255,89,72)" fill-opacity="1" d=" M712.5,300 C712.5,300 -712.5,300 -712.5,300 C-745.6370239257812,300 -772.5,273.1369934082031 -772.5,240 C-772.5,240 -772.5,-240 -772.5,-240 C-772.5,-273.1369934082031 -745.6370239257812,-300 -712.5,-300 C-712.5,-300 712.5,-300 712.5,-300 C745.6370239257812,-300 772.5,-273.1369934082031 772.5,-240 C772.5,-240 772.5,240 772.5,240 C772.5,273.1369934082031 745.6370239257812,300 712.5,300z"></path></g><g opacity="1" transform="matrix(1,0,0,1,547.5,375)"><path fill="rgb(255,181,173)" fill-opacity="1" d=" M22.5,300 C22.5,300 -22.5,300 -22.5,300 C-22.5,300 -22.5,-300 -22.5,-300 C-22.5,-300 22.5,-300 22.5,-300 C22.5,-300 22.5,300 22.5,300z"></path></g><g opacity="1" transform="matrix(1,0,0,1,997.5,375)"><path fill="rgb(255,181,173)" fill-opacity="1" d=" M22.5,300 C22.5,300 -22.5,300 -22.5,300 C-22.5,300 -22.5,-300 -22.5,-300 C-22.5,-300 22.5,-300 22.5,-300 C22.5,-300 22.5,300 22.5,300z"></path></g><g opacity="1" transform="matrix(1,0,0,1,1425,375)"><path fill="rgb(219,63,46)" fill-opacity="1" d=" M30,300 C30,300 -30,300 -30,300 C-30,300 -30,-300 -30,-300 C-30,-300 30,-300 30,-300 C30,-300 30,300 30,300z"></path></g><g opacity="1" transform="matrix(1,0,0,1,210,375)"><path fill="rgb(255,181,173)" fill-opacity="1" d=" M30,300 C30,300 30,300 30,300 C-3.13700008392334,300 -30,273.1369934082031 -30,240 C-30,240 -30,-240 -30,-240 C-30,-273.1369934082031 -3.13700008392334,-300 30,-300 C30,-300 30,300 30,300z"></path></g><g opacity="1" transform="matrix(1,0,0,1,705,120)"><path fill="rgb(233,242,255)" fill-opacity="1" d=" M60,45 C60,45 -60,45 -60,45 C-60,45 -90,-45 -90,-45 C-90,-45 90,-45 90,-45 C90,-45 60,45 60,45z"></path></g><g opacity="1" transform="matrix(1,0,0,1,757.5,120)"><path fill="rgb(185,215,255)" fill-opacity="1" d=" M-7.5,-45 C-7.5,-45 -37.5,45 -37.5,45 C-37.5,45 7.5,45 7.5,45 C7.5,45 37.5,-45 37.5,-45 C37.5,-45 -7.5,-45 -7.5,-45z"></path></g><g opacity="1" transform="matrix(1,0,0,1,652.5,120)"><path fill="rgb(255,255,255)" fill-opacity="1" d=" M-37.5,-45 C-37.5,-45 -7.5,45 -7.5,45 C-7.5,45 37.5,45 37.5,45 C37.5,45 7.5,-45 7.5,-45 C7.5,-45 -37.5,-45 -37.5,-45z"></path></g><g opacity="1" transform="matrix(1,0,0,1,1200,120)"><path fill="rgb(233,242,255)" fill-opacity="1" d=" M60,45 C60,45 -60,45 -60,45 C-60,45 -90,-45 -90,-45 C-90,-45 90,-45 90,-45 C90,-45 60,45 60,45z"></path></g><g opacity="1" transform="matrix(1,0,0,1,1252.5,120)"><path fill="rgb(185,215,255)" fill-opacity="1" d=" M-7.5,-45 C-7.5,-45 -37.5,45 -37.5,45 C-37.5,45 7.5,45 7.5,45 C7.5,45 37.5,-45 37.5,-45 C37.5,-45 -7.5,-45 -7.5,-45z"></path></g><g opacity="1" transform="matrix(1,0,0,1,1147.5,120)"><path fill="rgb(255,255,255)" fill-opacity="1" d=" M-37.5,-45 C-37.5,-45 -7.5,45 -7.5,45 C-7.5,45 37.5,45 37.5,45 C37.5,45 7.5,-45 7.5,-45 C7.5,-45 -37.5,-45 -37.5,-45z"></path></g><g opacity="1" transform="matrix(1,0,0,1,1590,375)"><path fill="rgb(233,242,255)" fill-opacity="1" d=" M75,300 C75,300 -135,300 -135,300 C-135,300 -135,-300 -135,-300 C-135,-300 75,-300 75,-300 C108.13700103759766,-300 135,-273.1369934082031 135,-240 C135,-240 135,240 135,240 C135,273.1369934082031 108.13700103759766,300 75,300z"></path></g><g opacity="1" transform="matrix(1,0,0,1,1485,375)"><path fill="rgb(255,255,255)" fill-opacity="1" d=" M-30,300 C-30,300 30,300 30,300 C30,300 30,-300 30,-300 C30,-300 -30,-300 -30,-300 C-30,-300 -30,300 -30,300z"></path></g><g opacity="1" transform="matrix(1,0,0,1,1695,375)"><path fill="rgb(185,215,255)" fill-opacity="1" d=" M-30,300 C-30,300 -30,300 -30,300 C-30,300 -30,-300 -30,-300 C3.13700008392334,-300 30,-273.1369934082031 30,-240 C30,-240 30,240 30,240 C30,273.1369934082031 3.13700008392334,300 -30,300z"></path></g><g opacity="1" transform="matrix(1,0,0,1,952.5,375)"><path stroke-linecap="round" stroke-linejoin="round" fill-opacity="0" stroke="rgb(41,51,87)" stroke-opacity="1" stroke-width="30" d=" M712.5,300 C712.5,300 -712.5,300 -712.5,300 C-745.6370239257812,300 -772.5,273.1369934082031 -772.5,240 C-772.5,240 -772.5,-240 -772.5,-240 C-772.5,-273.1369934082031 -745.6370239257812,-300 -712.5,-300 C-712.5,-300 712.5,-300 712.5,-300 C745.6370239257812,-300 772.5,-273.1369934082031 772.5,-240 C772.5,-240 772.5,240 772.5,240 C772.5,273.1369934082031 745.6370239257812,300 712.5,300z"></path></g><g opacity="1" transform="matrix(1,0,0,1,705,120)"><path stroke-linecap="round" stroke-linejoin="round" fill-opacity="0" stroke="rgb(41,51,87)" stroke-opacity="1" stroke-width="30" d=" M60,45 C60,45 -60,45 -60,45 C-60,45 -90,-45 -90,-45 C-90,-45 90,-45 90,-45 C90,-45 60,45 60,45z"></path></g><g opacity="1" transform="matrix(1,0,0,1,1200,120)"><path stroke-linecap="round" stroke-linejoin="round" fill-opacity="0" stroke="rgb(41,51,87)" stroke-opacity="1" stroke-width="30" d=" M60,45 C60,45 -60,45 -60,45 C-60,45 -90,-45 -90,-45 C-90,-45 90,-45 90,-45 C90,-45 60,45 60,45z"></path></g><g opacity="1" transform="matrix(1,0,0,1,1590,375)"><path stroke-linecap="round" stroke-linejoin="round" fill-opacity="0" stroke="rgb(41,51,87)" stroke-opacity="1" stroke-width="30" d=" M75,300 C75,300 -135,300 -135,300 C-135,300 -135,-300 -135,-300 C-135,-300 75,-300 75,-300 C108.13700103759766,-300 135,-273.1369934082031 135,-240 C135,-240 135,240 135,240 C135,273.1369934082031 108.13700103759766,300 75,300z"></path></g><g opacity="1" transform="matrix(1,0,0,1,457.5,375)"><path fill="rgb(60,91,107)" fill-opacity="1" d=" M217.5,0 C217.5,120.12200164794922 120.12200164794922,217.5 0,217.5 C-120.12200164794922,217.5 -217.5,120.12200164794922 -217.5,0 C-217.5,-120.12200164794922 -120.12200164794922,-217.5 0,-217.5 C120.12200164794922,-217.5 217.5,-120.12200164794922 217.5,0z"></path></g><g opacity="1" transform="matrix(1,0,0,1,952.5,375)"><path fill="rgb(60,91,107)" fill-opacity="1" d=" M217.5,0 C217.5,120.12200164794922 120.12200164794922,217.5 0,217.5 C-120.12200164794922,217.5 -217.5,120.12200164794922 -217.5,0 C-217.5,-120.12200164794922 -120.12200164794922,-217.5 0,-217.5 C120.12200164794922,-217.5 217.5,-120.12200164794922 217.5,0z"></path></g><g opacity="1" transform="matrix(1,0,0,1,1447.5,375)"><path fill="rgb(60,91,107)" fill-opacity="1" d=" M217.5,0 C217.5,120.12200164794922 120.12200164794922,217.5 0,217.5 C-120.12200164794922,217.5 -217.5,120.12200164794922 -217.5,0 C-217.5,-120.12200164794922 -120.12200164794922,-217.5 0,-217.5 C120.12200164794922,-217.5 217.5,-120.12200164794922 217.5,0z"></path></g><g opacity="1" transform="matrix(1,0,0,1,705,630)"><path fill="rgb(233,242,255)" fill-opacity="1" d=" M-60,-45 C-60,-45 60,-45 60,-45 C60,-45 90,45 90,45 C90,45 -90,45 -90,45 C-90,45 -60,-45 -60,-45z"></path></g><g opacity="1" transform="matrix(1,0,0,1,1200,630)"><path fill="rgb(233,242,255)" fill-opacity="1" d=" M-60,-45 C-60,-45 60,-45 60,-45 C60,-45 90,45 90,45 C90,45 -90,45 -90,45 C-90,45 -60,-45 -60,-45z"></path></g><g opacity="1" transform="matrix(1,0,0,1,1252.5,630)"><path fill="rgb(185,215,255)" fill-opacity="1" d=" M-7.5,45 C-7.5,45 -37.5,-45 -37.5,-45 C-37.5,-45 7.5,-45 7.5,-45 C7.5,-45 37.5,45 37.5,45 C37.5,45 -7.5,45 -7.5,45z"></path></g><g opacity="1" transform="matrix(1,0,0,1,1147.5,630)"><path fill="rgb(255,255,255)" fill-opacity="1" d=" M-37.5,45 C-37.5,45 -7.5,-45 -7.5,-45 C-7.5,-45 37.5,-45 37.5,-45 C37.5,-45 7.5,45 7.5,45 C7.5,45 -37.5,45 -37.5,45z"></path></g><g opacity="1" transform="matrix(1,0,0,1,757.5,630)"><path fill="rgb(185,215,255)" fill-opacity="1" d=" M-7.5,45 C-7.5,45 -37.5,-45 -37.5,-45 C-37.5,-45 7.5,-45 7.5,-45 C7.5,-45 37.5,45 37.5,45 C37.5,45 -7.5,45 -7.5,45z"></path></g><g opacity="1" transform="matrix(1,0,0,1,652.5,630)"><path fill="rgb(255,255,255)" fill-opacity="1" d=" M-37.5,45 C-37.5,45 -7.5,-45 -7.5,-45 C-7.5,-45 37.5,-45 37.5,-45 C37.5,-45 7.5,45 7.5,45 C7.5,45 -37.5,45 -37.5,45z"></path></g><g opacity="1" transform="matrix(1,0,0,1,457.5,375)"><path stroke-linecap="round" stroke-linejoin="round" fill-opacity="0" stroke="rgb(41,51,87)" stroke-opacity="1" stroke-width="30" d=" M217.5,0 C217.5,120.12200164794922 120.12200164794922,217.5 0,217.5 C-120.12200164794922,217.5 -217.5,120.12200164794922 -217.5,0 C-217.5,-120.12200164794922 -120.12200164794922,-217.5 0,-217.5 C120.12200164794922,-217.5 217.5,-120.12200164794922 217.5,0z"></path></g><g opacity="1" transform="matrix(1,0,0,1,952.5,375)"><path stroke-linecap="round" stroke-linejoin="round" fill-opacity="0" stroke="rgb(41,51,87)" stroke-opacity="1" stroke-width="30" d=" M217.5,0 C217.5,120.12200164794922 120.12200164794922,217.5 0,217.5 C-120.12200164794922,217.5 -217.5,120.12200164794922 -217.5,0 C-217.5,-120.12200164794922 -120.12200164794922,-217.5 0,-217.5 C120.12200164794922,-217.5 217.5,-120.12200164794922 217.5,0z"></path></g><g opacity="1" transform="matrix(1,0,0,1,1447.5,375)"><path stroke-linecap="round" stroke-linejoin="round" fill-opacity="0" stroke="rgb(41,51,87)" stroke-opacity="1" stroke-width="30" d=" M217.5,0 C217.5,120.12200164794922 120.12200164794922,217.5 0,217.5 C-120.12200164794922,217.5 -217.5,120.12200164794922 -217.5,0 C-217.5,-120.12200164794922 -120.12200164794922,-217.5 0,-217.5 C120.12200164794922,-217.5 217.5,-120.12200164794922 217.5,0z"></path></g><g opacity="1" transform="matrix(1,0,0,1,705,630)"><path stroke-linecap="round" stroke-linejoin="round" fill-opacity="0" stroke="rgb(41,51,87)" stroke-opacity="1" stroke-width="30" d=" M-60,-45 C-60,-45 60,-45 60,-45 C60,-45 90,45 90,45 C90,45 -90,45 -90,45 C-90,45 -60,-45 -60,-45z"></path></g><g opacity="1" transform="matrix(1,0,0,1,1200,630)"><path stroke-linecap="round" stroke-linejoin="round" fill-opacity="0" stroke="rgb(41,51,87)" stroke-opacity="1" stroke-width="30" d=" M-60,-45 C-60,-45 60,-45 60,-45 C60,-45 90,45 90,45 C90,45 -90,45 -90,45 C-90,45 -60,-45 -60,-45z"></path></g><g opacity="1" transform="matrix(1,0,0,1,1657.5,142.5)"><path stroke-linecap="round" stroke-linejoin="round" fill-opacity="0" stroke="rgb(41,51,87)" stroke-opacity="1" stroke-width="30" d=" M-7.5,7.5 C-7.5,7.5 7.5,-7.5 7.5,-7.5"></path></g><g opacity="1" transform="matrix(1,0,0,1,1657.5,607.5)"><path stroke-linecap="round" stroke-linejoin="round" fill-opacity="0" stroke="rgb(41,51,87)" stroke-opacity="1" stroke-width="30" d=" M-7.5,-7.5 C-7.5,-7.5 7.5,7.5 7.5,7.5"></path></g><g opacity="1" transform="matrix(1,0,0,1,247.5,142.5)"><path stroke-linecap="round" stroke-linejoin="round" fill-opacity="0" stroke="rgb(41,51,87)" stroke-opacity="1" stroke-width="30" d=" M7.5,7.5 C7.5,7.5 -7.5,-7.5 -7.5,-7.5"></path></g><g opacity="1" transform="matrix(1,0,0,1,247.5,607.5)"><path stroke-linecap="round" stroke-linejoin="round" fill-opacity="0" stroke="rgb(41,51,87)" stroke-opacity="1" stroke-width="30" d=" M7.5,-7.5 C7.5,-7.5 -7.5,7.5 -7.5,7.5"></path></g><g opacity="1" transform="matrix(1,0,0,1,127.5,540)"><path stroke-linecap="round" stroke-linejoin="round" fill-opacity="0" stroke="rgb(41,51,87)" stroke-opacity="1" stroke-width="30" d=" M-52.5,-285 C-52.5,-285 52.5,-285 52.5,-285 C52.5,-285 52.5,285 52.5,285"></path></g><g opacity="1" transform="matrix(1,0,0,1,322.5,127.5)"><path fill="rgb(255,181,173)" fill-opacity="1" d=" M22.5,22.5 C22.5,22.5 -22.5,22.5 -22.5,22.5 C-22.5,22.5 -22.5,-22.5 -22.5,-22.5 C-22.5,-22.5 22.5,-22.5 22.5,-22.5 C22.5,-22.5 22.5,22.5 22.5,22.5z"></path></g><g opacity="1" transform="matrix(1,0,0,1,322.5,622.5)"><path fill="rgb(255,181,173)" fill-opacity="1" d=" M22.5,22.5 C22.5,22.5 -22.5,22.5 -22.5,22.5 C-22.5,22.5 -22.5,-22.5 -22.5,-22.5 C-22.5,-22.5 22.5,-22.5 22.5,-22.5 C22.5,-22.5 22.5,22.5 22.5,22.5z"></path></g><g opacity="1" transform="matrix(1,0,0,1,720,705)"><path fill="rgb(114,150,168)" fill-opacity="1" d=" M375,30 C375,30 -375,30 -375,30 C-375,30 -375,-30 -375,-30 C-375,-30 375,-30 375,-30 C375,-30 375,30 375,30z"></path></g><g opacity="1" transform="matrix(1,0,0,1,1065,705)"><path fill="rgb(74,113,133)" fill-opacity="1" d=" M30,30 C30,30 -30,30 -30,30 C-30,30 -30,-30 -30,-30 C-30,-30 30,-30 30,-30 C30,-30 30,30 30,30z"></path></g><g opacity="1" transform="matrix(1,0,0,1,367.5,705)"><path fill="rgb(198,220,232)" fill-opacity="1" d=" M22.5,30 C22.5,30 -22.5,30 -22.5,30 C-22.5,30 -22.5,-30 -22.5,-30 C-22.5,-30 22.5,-30 22.5,-30 C22.5,-30 22.5,30 22.5,30z"></path></g><g opacity="1" transform="matrix(1,0,0,1,592.5,705)"><path fill="rgb(198,220,232)" fill-opacity="1" d=" M22.5,30 C22.5,30 -22.5,30 -22.5,30 C-22.5,30 -22.5,-30 -22.5,-30 C-22.5,-30 22.5,-30 22.5,-30 C22.5,-30 22.5,30 22.5,30z"></path></g><g opacity="1" transform="matrix(1,0,0,1,712.5,705)"><path fill="rgb(198,220,232)" fill-opacity="1" d=" M22.5,30 C22.5,30 -22.5,30 -22.5,30 C-22.5,30 -22.5,-30 -22.5,-30 C-22.5,-30 22.5,-30 22.5,-30 C22.5,-30 22.5,30 22.5,30z"></path></g><g opacity="1" transform="matrix(1,0,0,1,720,705)"><path stroke-linecap="round" stroke-linejoin="round" fill-opacity="0" stroke="rgb(41,51,87)" stroke-opacity="1" stroke-width="30" d=" M375,30 C375,30 -375,30 -375,30 C-375,30 -375,-30 -375,-30 C-375,-30 375,-30 375,-30 C375,-30 375,30 375,30z"></path></g><g opacity="1" transform="matrix(1,0,0,1,630,765)"><path fill="rgb(255,211,89)" fill-opacity="1" d=" M285,30 C285,30 -285,30 -285,30 C-285,30 -285,-30 -285,-30 C-285,-30 285,-30 285,-30 C285,-30 285,30 285,30z"></path></g><g opacity="1" transform="matrix(1,0,0,1,367.5,765)"><path fill="rgb(255,245,212)" fill-opacity="1" d=" M22.5,30 C22.5,30 -22.5,30 -22.5,30 C-22.5,30 -22.5,-30 -22.5,-30 C-22.5,-30 22.5,-30 22.5,-30 C22.5,-30 22.5,30 22.5,30z"></path></g><g opacity="1" transform="matrix(1,0,0,1,472.5,765)"><path fill="rgb(255,245,212)" fill-opacity="1" d=" M22.5,30 C22.5,30 -22.5,30 -22.5,30 C-22.5,30 -22.5,-30 -22.5,-30 C-22.5,-30 22.5,-30 22.5,-30 C22.5,-30 22.5,30 22.5,30z"></path></g><g opacity="1" transform="matrix(1,0,0,1,577.5,765)"><path fill="rgb(255,245,212)" fill-opacity="1" d=" M22.5,30 C22.5,30 -22.5,30 -22.5,30 C-22.5,30 -22.5,-30 -22.5,-30 C-22.5,-30 22.5,-30 22.5,-30 C22.5,-30 22.5,30 22.5,30z"></path></g><g opacity="1" transform="matrix(1,0,0,1,682.5,765)"><path fill="rgb(255,245,212)" fill-opacity="1" d=" M22.5,30 C22.5,30 -22.5,30 -22.5,30 C-22.5,30 -22.5,-30 -22.5,-30 C-22.5,-30 22.5,-30 22.5,-30 C22.5,-30 22.5,30 22.5,30z"></path></g><g opacity="1" transform="matrix(1,0,0,1,787.5,765)"><path fill="rgb(255,245,212)" fill-opacity="1" d=" M22.5,30 C22.5,30 -22.5,30 -22.5,30 C-22.5,30 -22.5,-30 -22.5,-30 C-22.5,-30 22.5,-30 22.5,-30 C22.5,-30 22.5,30 22.5,30z"></path></g><g opacity="1" transform="matrix(1,0,0,1,892.5,765)"><path fill="rgb(255,169,64)" fill-opacity="1" d=" M22.5,30 C22.5,30 -22.5,30 -22.5,30 C-22.5,30 -22.5,-30 -22.5,-30 C-22.5,-30 22.5,-30 22.5,-30 C22.5,-30 22.5,30 22.5,30z"></path></g><g opacity="1" transform="matrix(1,0,0,1,630,765)"><path stroke-linecap="round" stroke-linejoin="round" fill-opacity="0" stroke="rgb(41,51,87)" stroke-opacity="1" stroke-width="30" d=" M285,30 C285,30 -285,30 -285,30 C-285,30 -285,-30 -285,-30 C-285,-30 285,-30 285,-30 C285,-30 285,30 285,30z"></path></g><g opacity="1" transform="matrix(1,0,0,1,1050,765)"><path fill="rgb(255,211,89)" fill-opacity="1" d=" M45,30 C45,30 -45,30 -45,30 C-45,30 -45,-30 -45,-30 C-45,-30 45,-30 45,-30 C45,-30 45,30 45,30z"></path></g><g opacity="1" transform="matrix(1,0,0,1,1027.5,765)"><path fill="rgb(255,245,212)" fill-opacity="1" d=" M22.5,30 C22.5,30 -22.5,30 -22.5,30 C-22.5,30 -22.5,-30 -22.5,-30 C-22.5,-30 22.5,-30 22.5,-30 C22.5,-30 22.5,30 22.5,30z"></path></g><g opacity="1" transform="matrix(1,0,0,1,1050,765)"><path stroke-linecap="round" stroke-linejoin="round" fill-opacity="0" stroke="rgb(41,51,87)" stroke-opacity="1" stroke-width="30" d=" M45,30 C45,30 -45,30 -45,30 C-45,30 -45,-30 -45,-30 C-45,-30 45,-30 45,-30 C45,-30 45,30 45,30z"></path></g></g><g transform="matrix(-0.26676592230796814,-0.9637613296508789,0.9637613296508789,-0.26676592230796814,1428.999267578125,1689.1171875)" opacity="1" style="display: block;"><g opacity="1" transform="matrix(1,0,0,1,322.906005859375,180)"><path fill="rgb(255,211,89)" fill-opacity="1" d=" M-37.90599822998047,-105 C-37.90599822998047,-105 -37.90599822998047,-105 -37.90599822998047,-105 C17.124000549316406,-81.41600036621094 37.90599822998047,-14.133999824523926 5.763000011444092,36.37699890136719 C5.763000011444092,36.37699890136719 -37.90599822998047,105 -37.90599822998047,105 C-37.90599822998047,105 -37.90599822998047,-105 -37.90599822998047,-105z"></path></g><g opacity="1" transform="matrix(1,0,0,1,210.75399780273438,199.63600158691406)"><path fill="rgb(255,211,89)" fill-opacity="1" d=" M-74.24600219726562,-63.12900161743164 C-74.24600219726562,-63.12900161743164 -74.24600219726562,-63.12900161743164 -74.24600219726562,-63.12900161743164 C-18.656999588012695,-85.36399841308594 43.61399841308594,-52.483001708984375 56.60100173950195,5.961999893188477 C56.60100173950195,5.961999893188477 74.24600219726562,85.36299896240234 74.24600219726562,85.36299896240234 C74.24600219726562,85.36299896240234 -74.24600219726562,-63.12900161743164 -74.24600219726562,-63.12900161743164z"></path></g><g opacity="1" transform="matrix(1,0,0,1,180,247.093994140625)"><path fill="rgb(255,211,89)" fill-opacity="1" d=" M-105,37.90599822998047 C-105,37.90599822998047 -105,37.90599822998047 -105,37.90599822998047 C-81.41600036621094,-17.124000549316406 -14.133999824523926,-37.90599822998047 36.37699890136719,-5.763000011444092 C36.37699890136719,-5.763000011444092 105,37.90599822998047 105,37.90599822998047 C105,37.90599822998047 -105,37.90599822998047 -105,37.90599822998047z"></path></g><g opacity="1" transform="matrix(1,0,0,1,199.63600158691406,359.24700927734375)"><path fill="rgb(255,211,89)" fill-opacity="1" d=" M-63.12799835205078,74.24600219726562 C-63.12799835205078,74.24600219726562 -63.12799835205078,74.24600219726562 -63.12799835205078,74.24600219726562 C-85.36299896240234,18.656999588012695 -52.48400115966797,-43.61399841308594 5.960999965667725,-56.60100173950195 C5.960999965667725,-56.60100173950195 85.36399841308594,-74.24600219726562 85.36399841308594,-74.24600219726562 C85.36399841308594,-74.24600219726562 -63.12799835205078,74.24600219726562 -63.12799835205078,74.24600219726562z"></path></g><g opacity="1" transform="matrix(1,0,0,1,247.093994140625,390)"><path fill="rgb(255,211,89)" fill-opacity="1" d=" M37.90599822998047,105 C37.90599822998047,105 37.90599822998047,105 37.90599822998047,105 C-17.124000549316406,81.41600036621094 -37.90599822998047,14.133999824523926 -5.763000011444092,-36.37699890136719 C-5.763000011444092,-36.37699890136719 37.90599822998047,-105 37.90599822998047,-105 C37.90599822998047,-105 37.90599822998047,105 37.90599822998047,105z"></path></g><g opacity="1" transform="matrix(1,0,0,1,359.2460021972656,370.364013671875)"><path fill="rgb(255,211,89)" fill-opacity="1" d=" M74.24600219726562,63.12799835205078 C74.24600219726562,63.12799835205078 74.24600219726562,63.12799835205078 74.24600219726562,63.12799835205078 C18.656999588012695,85.36299896240234 -43.61399841308594,52.48400115966797 -56.60100173950195,-5.960999965667725 C-56.60100173950195,-5.960999965667725 -74.24600219726562,-85.36399841308594 -74.24600219726562,-85.36399841308594 C-74.24600219726562,-85.36399841308594 74.24600219726562,63.12799835205078 74.24600219726562,63.12799835205078z"></path></g><g opacity="1" transform="matrix(1,0,0,1,390,322.906005859375)"><path fill="rgb(255,211,89)" fill-opacity="1" d=" M105,-37.90599822998047 C105,-37.90599822998047 105,-37.90599822998047 105,-37.90599822998047 C81.41600036621094,17.124000549316406 14.133999824523926,37.90599822998047 -36.37699890136719,5.763000011444092 C-36.37699890136719,5.763000011444092 -105,-37.90599822998047 -105,-37.90599822998047 C-105,-37.90599822998047 105,-37.90599822998047 105,-37.90599822998047z"></path></g><g opacity="1" transform="matrix(1,0,0,1,370.364013671875,210.75399780273438)"><path fill="rgb(255,211,89)" fill-opacity="1" d=" M63.12900161743164,-74.24600219726562 C63.12900161743164,-74.24600219726562 63.12900161743164,-74.24600219726562 63.12900161743164,-74.24600219726562 C85.36399841308594,-18.656999588012695 52.48400115966797,43.61399841308594 -5.960999965667725,56.60100173950195 C-5.960999965667725,56.60100173950195 -85.36399841308594,74.24600219726562 -85.36399841308594,74.24600219726562 C-85.36399841308594,74.24600219726562 63.12900161743164,-74.24600219726562 63.12900161743164,-74.24600219726562z"></path></g><g opacity="1" transform="matrix(1,0,0,1,322.906005859375,180)"><path stroke-linecap="round" stroke-linejoin="round" fill-opacity="0" stroke="rgb(41,51,87)" stroke-opacity="1" stroke-width="30" d=" M-37.90599822998047,-105 C-37.90599822998047,-105 -37.90599822998047,-105 -37.90599822998047,-105 C17.124000549316406,-81.41600036621094 37.90599822998047,-14.133999824523926 5.763000011444092,36.37699890136719 C5.763000011444092,36.37699890136719 -37.90599822998047,105 -37.90599822998047,105 C-37.90599822998047,105 -37.90599822998047,-105 -37.90599822998047,-105z"></path></g><g opacity="1" transform="matrix(1,0,0,1,210.75399780273438,199.63600158691406)"><path stroke-linecap="round" stroke-linejoin="round" fill-opacity="0" stroke="rgb(41,51,87)" stroke-opacity="1" stroke-width="30" d=" M-74.24600219726562,-63.12900161743164 C-74.24600219726562,-63.12900161743164 -74.24600219726562,-63.12900161743164 -74.24600219726562,-63.12900161743164 C-18.656999588012695,-85.36399841308594 43.61399841308594,-52.483001708984375 56.60100173950195,5.961999893188477 C56.60100173950195,5.961999893188477 74.24600219726562,85.36299896240234 74.24600219726562,85.36299896240234 C74.24600219726562,85.36299896240234 -74.24600219726562,-63.12900161743164 -74.24600219726562,-63.12900161743164z"></path></g><g opacity="1" transform="matrix(1,0,0,1,180,247.093994140625)"><path stroke-linecap="round" stroke-linejoin="round" fill-opacity="0" stroke="rgb(41,51,87)" stroke-opacity="1" stroke-width="30" d=" M-105,37.90599822998047 C-105,37.90599822998047 -105,37.90599822998047 -105,37.90599822998047 C-81.41600036621094,-17.124000549316406 -14.133999824523926,-37.90599822998047 36.37699890136719,-5.763000011444092 C36.37699890136719,-5.763000011444092 105,37.90599822998047 105,37.90599822998047 C105,37.90599822998047 -105,37.90599822998047 -105,37.90599822998047z"></path></g><g opacity="1" transform="matrix(1,0,0,1,199.63600158691406,359.24700927734375)"><path stroke-linecap="round" stroke-linejoin="round" fill-opacity="0" stroke="rgb(41,51,87)" stroke-opacity="1" stroke-width="30" d=" M-63.12799835205078,74.24600219726562 C-63.12799835205078,74.24600219726562 -63.12799835205078,74.24600219726562 -63.12799835205078,74.24600219726562 C-85.36299896240234,18.656999588012695 -52.48400115966797,-43.61399841308594 5.960999965667725,-56.60100173950195 C5.960999965667725,-56.60100173950195 85.36399841308594,-74.24600219726562 85.36399841308594,-74.24600219726562 C85.36399841308594,-74.24600219726562 -63.12799835205078,74.24600219726562 -63.12799835205078,74.24600219726562z"></path></g><g opacity="1" transform="matrix(1,0,0,1,247.093994140625,390)"><path stroke-linecap="round" stroke-linejoin="round" fill-opacity="0" stroke="rgb(41,51,87)" stroke-opacity="1" stroke-width="30" d=" M37.90599822998047,105 C37.90599822998047,105 37.90599822998047,105 37.90599822998047,105 C-17.124000549316406,81.41600036621094 -37.90599822998047,14.133999824523926 -5.763000011444092,-36.37699890136719 C-5.763000011444092,-36.37699890136719 37.90599822998047,-105 37.90599822998047,-105 C37.90599822998047,-105 37.90599822998047,105 37.90599822998047,105z"></path></g><g opacity="1" transform="matrix(1,0,0,1,359.2460021972656,370.364013671875)"><path stroke-linecap="round" stroke-linejoin="round" fill-opacity="0" stroke="rgb(41,51,87)" stroke-opacity="1" stroke-width="30" d=" M74.24600219726562,63.12799835205078 C74.24600219726562,63.12799835205078 74.24600219726562,63.12799835205078 74.24600219726562,63.12799835205078 C18.656999588012695,85.36299896240234 -43.61399841308594,52.48400115966797 -56.60100173950195,-5.960999965667725 C-56.60100173950195,-5.960999965667725 -74.24600219726562,-85.36399841308594 -74.24600219726562,-85.36399841308594 C-74.24600219726562,-85.36399841308594 74.24600219726562,63.12799835205078 74.24600219726562,63.12799835205078z"></path></g><g opacity="1" transform="matrix(1,0,0,1,390,322.906005859375)"><path stroke-linecap="round" stroke-linejoin="round" fill-opacity="0" stroke="rgb(41,51,87)" stroke-opacity="1" stroke-width="30" d=" M105,-37.90599822998047 C105,-37.90599822998047 105,-37.90599822998047 105,-37.90599822998047 C81.41600036621094,17.124000549316406 14.133999824523926,37.90599822998047 -36.37699890136719,5.763000011444092 C-36.37699890136719,5.763000011444092 -105,-37.90599822998047 -105,-37.90599822998047 C-105,-37.90599822998047 105,-37.90599822998047 105,-37.90599822998047z"></path></g><g opacity="1" transform="matrix(1,0,0,1,370.364013671875,210.75399780273438)"><path stroke-linecap="round" stroke-linejoin="round" fill-opacity="0" stroke="rgb(41,51,87)" stroke-opacity="1" stroke-width="30" d=" M63.12900161743164,-74.24600219726562 C63.12900161743164,-74.24600219726562 63.12900161743164,-74.24600219726562 63.12900161743164,-74.24600219726562 C85.36399841308594,-18.656999588012695 52.48400115966797,43.61399841308594 -5.960999965667725,56.60100173950195 C-5.960999965667725,56.60100173950195 -85.36399841308594,74.24600219726562 -85.36399841308594,74.24600219726562 C-85.36399841308594,74.24600219726562 63.12900161743164,-74.24600219726562 63.12900161743164,-74.24600219726562z"></path></g><g opacity="1" transform="matrix(1,0,0,1,285,285)"><path fill="rgb(255,211,89)" fill-opacity="1" d=" M60,0 C60,33.137001037597656 33.137001037597656,60 0,60 C-33.137001037597656,60 -60,33.137001037597656 -60,0 C-60,-33.137001037597656 -33.137001037597656,-60 0,-60 C33.137001037597656,-60 60,-33.137001037597656 60,0z"></path></g><g opacity="1" transform="matrix(1,0,0,1,315,285)"><path fill="rgb(255,169,64)" fill-opacity="1" d=" M-30,60 C-30,60 -30,60 -30,60 C-30,60 -30,-60 -30,-60 C3.13700008392334,-60 30,-33.137001037597656 30,0 C30,33.137001037597656 3.13700008392334,60 -30,60z"></path></g><g opacity="1" transform="matrix(1,0,0,1,285,285)"><path stroke-linecap="round" stroke-linejoin="round" fill-opacity="0" stroke="rgb(41,51,87)" stroke-opacity="1" stroke-width="30" d=" M60,0 C60,33.137001037597656 33.137001037597656,60 0,60 C-33.137001037597656,60 -60,33.137001037597656 -60,0 C-60,-33.137001037597656 -33.137001037597656,-60 0,-60 C33.137001037597656,-60 60,-33.137001037597656 60,0z"></path></g></g><g transform="matrix(-0.26676592230796814,-0.9637613296508789,0.9637613296508789,-0.26676592230796814,933.999267578125,1689.1171875)" opacity="1" style="display: block;"><g opacity="1" transform="matrix(1,0,0,1,322.906005859375,180)"><path fill="rgb(255,211,89)" fill-opacity="1" d=" M-37.90599822998047,-105 C-37.90599822998047,-105 -37.90599822998047,-105 -37.90599822998047,-105 C17.124000549316406,-81.41600036621094 37.90599822998047,-14.133999824523926 5.763000011444092,36.37699890136719 C5.763000011444092,36.37699890136719 -37.90599822998047,105 -37.90599822998047,105 C-37.90599822998047,105 -37.90599822998047,-105 -37.90599822998047,-105z"></path></g><g opacity="1" transform="matrix(1,0,0,1,210.75399780273438,199.63600158691406)"><path fill="rgb(255,211,89)" fill-opacity="1" d=" M-74.24600219726562,-63.12900161743164 C-74.24600219726562,-63.12900161743164 -74.24600219726562,-63.12900161743164 -74.24600219726562,-63.12900161743164 C-18.656999588012695,-85.36399841308594 43.61399841308594,-52.483001708984375 56.60100173950195,5.961999893188477 C56.60100173950195,5.961999893188477 74.24600219726562,85.36299896240234 74.24600219726562,85.36299896240234 C74.24600219726562,85.36299896240234 -74.24600219726562,-63.12900161743164 -74.24600219726562,-63.12900161743164z"></path></g><g opacity="1" transform="matrix(1,0,0,1,180,247.093994140625)"><path fill="rgb(255,211,89)" fill-opacity="1" d=" M-105,37.90599822998047 C-105,37.90599822998047 -105,37.90599822998047 -105,37.90599822998047 C-81.41600036621094,-17.124000549316406 -14.133999824523926,-37.90599822998047 36.37699890136719,-5.763000011444092 C36.37699890136719,-5.763000011444092 105,37.90599822998047 105,37.90599822998047 C105,37.90599822998047 -105,37.90599822998047 -105,37.90599822998047z"></path></g><g opacity="1" transform="matrix(1,0,0,1,199.63600158691406,359.24700927734375)"><path fill="rgb(255,211,89)" fill-opacity="1" d=" M-63.12799835205078,74.24600219726562 C-63.12799835205078,74.24600219726562 -63.12799835205078,74.24600219726562 -63.12799835205078,74.24600219726562 C-85.36299896240234,18.656999588012695 -52.483001708984375,-43.61399841308594 5.961999893188477,-56.60100173950195 C5.961999893188477,-56.60100173950195 85.36399841308594,-74.24600219726562 85.36399841308594,-74.24600219726562 C85.36399841308594,-74.24600219726562 -63.12799835205078,74.24600219726562 -63.12799835205078,74.24600219726562z"></path></g><g opacity="1" transform="matrix(1,0,0,1,247.093994140625,390)"><path fill="rgb(255,211,89)" fill-opacity="1" d=" M37.90599822998047,105 C37.90599822998047,105 37.90599822998047,105 37.90599822998047,105 C-17.124000549316406,81.41600036621094 -37.90599822998047,14.133999824523926 -5.763000011444092,-36.37699890136719 C-5.763000011444092,-36.37699890136719 37.90599822998047,-105 37.90599822998047,-105 C37.90599822998047,-105 37.90599822998047,105 37.90599822998047,105z"></path></g><g opacity="1" transform="matrix(1,0,0,1,359.2460021972656,370.364013671875)"><path fill="rgb(255,211,89)" fill-opacity="1" d=" M74.24600219726562,63.12799835205078 C74.24600219726562,63.12799835205078 74.24600219726562,63.12799835205078 74.24600219726562,63.12799835205078 C18.656999588012695,85.36299896240234 -43.61399841308594,52.48400115966797 -56.60100173950195,-5.960999965667725 C-56.60100173950195,-5.960999965667725 -74.24600219726562,-85.36399841308594 -74.24600219726562,-85.36399841308594 C-74.24600219726562,-85.36399841308594 74.24600219726562,63.12799835205078 74.24600219726562,63.12799835205078z"></path></g><g opacity="1" transform="matrix(1,0,0,1,390,322.906005859375)"><path fill="rgb(255,211,89)" fill-opacity="1" d=" M105,-37.90599822998047 C105,-37.90599822998047 105,-37.90599822998047 105,-37.90599822998047 C81.41600036621094,17.124000549316406 14.133999824523926,37.90599822998047 -36.37699890136719,5.763000011444092 C-36.37699890136719,5.763000011444092 -105,-37.90599822998047 -105,-37.90599822998047 C-105,-37.90599822998047 105,-37.90599822998047 105,-37.90599822998047z"></path></g><g opacity="1" transform="matrix(1,0,0,1,370.364013671875,210.75399780273438)"><path fill="rgb(255,211,89)" fill-opacity="1" d=" M63.12900161743164,-74.24600219726562 C63.12900161743164,-74.24600219726562 63.12900161743164,-74.24600219726562 63.12900161743164,-74.24600219726562 C85.36399841308594,-18.656999588012695 52.48400115966797,43.61399841308594 -5.960999965667725,56.60100173950195 C-5.960999965667725,56.60100173950195 -85.36299896240234,74.24600219726562 -85.36299896240234,74.24600219726562 C-85.36299896240234,74.24600219726562 63.12900161743164,-74.24600219726562 63.12900161743164,-74.24600219726562z"></path></g><g opacity="1" transform="matrix(1,0,0,1,322.906005859375,180)"><path stroke-linecap="round" stroke-linejoin="round" fill-opacity="0" stroke="rgb(41,51,87)" stroke-opacity="1" stroke-width="30" d=" M-37.90599822998047,-105 C-37.90599822998047,-105 -37.90599822998047,-105 -37.90599822998047,-105 C17.124000549316406,-81.41600036621094 37.90599822998047,-14.133999824523926 5.763000011444092,36.37699890136719 C5.763000011444092,36.37699890136719 -37.90599822998047,105 -37.90599822998047,105 C-37.90599822998047,105 -37.90599822998047,-105 -37.90599822998047,-105z"></path></g><g opacity="1" transform="matrix(1,0,0,1,210.75399780273438,199.63600158691406)"><path stroke-linecap="round" stroke-linejoin="round" fill-opacity="0" stroke="rgb(41,51,87)" stroke-opacity="1" stroke-width="30" d=" M-74.24600219726562,-63.12900161743164 C-74.24600219726562,-63.12900161743164 -74.24600219726562,-63.12900161743164 -74.24600219726562,-63.12900161743164 C-18.656999588012695,-85.36399841308594 43.61399841308594,-52.483001708984375 56.60100173950195,5.961999893188477 C56.60100173950195,5.961999893188477 74.24600219726562,85.36299896240234 74.24600219726562,85.36299896240234 C74.24600219726562,85.36299896240234 -74.24600219726562,-63.12900161743164 -74.24600219726562,-63.12900161743164z"></path></g><g opacity="1" transform="matrix(1,0,0,1,180,247.093994140625)"><path stroke-linecap="round" stroke-linejoin="round" fill-opacity="0" stroke="rgb(41,51,87)" stroke-opacity="1" stroke-width="30" d=" M-105,37.90599822998047 C-105,37.90599822998047 -105,37.90599822998047 -105,37.90599822998047 C-81.41600036621094,-17.124000549316406 -14.133999824523926,-37.90599822998047 36.37699890136719,-5.763000011444092 C36.37699890136719,-5.763000011444092 105,37.90599822998047 105,37.90599822998047 C105,37.90599822998047 -105,37.90599822998047 -105,37.90599822998047z"></path></g><g opacity="1" transform="matrix(1,0,0,1,199.63600158691406,359.24700927734375)"><path stroke-linecap="round" stroke-linejoin="round" fill-opacity="0" stroke="rgb(41,51,87)" stroke-opacity="1" stroke-width="30" d=" M-63.12799835205078,74.24600219726562 C-63.12799835205078,74.24600219726562 -63.12799835205078,74.24600219726562 -63.12799835205078,74.24600219726562 C-85.36299896240234,18.656999588012695 -52.483001708984375,-43.61399841308594 5.961999893188477,-56.60100173950195 C5.961999893188477,-56.60100173950195 85.36399841308594,-74.24600219726562 85.36399841308594,-74.24600219726562 C85.36399841308594,-74.24600219726562 -63.12799835205078,74.24600219726562 -63.12799835205078,74.24600219726562z"></path></g><g opacity="1" transform="matrix(1,0,0,1,247.093994140625,390)"><path stroke-linecap="round" stroke-linejoin="round" fill-opacity="0" stroke="rgb(41,51,87)" stroke-opacity="1" stroke-width="30" d=" M37.90599822998047,105 C37.90599822998047,105 37.90599822998047,105 37.90599822998047,105 C-17.124000549316406,81.41600036621094 -37.90599822998047,14.133999824523926 -5.763000011444092,-36.37699890136719 C-5.763000011444092,-36.37699890136719 37.90599822998047,-105 37.90599822998047,-105 C37.90599822998047,-105 37.90599822998047,105 37.90599822998047,105z"></path></g><g opacity="1" transform="matrix(1,0,0,1,359.2460021972656,370.364013671875)"><path stroke-linecap="round" stroke-linejoin="round" fill-opacity="0" stroke="rgb(41,51,87)" stroke-opacity="1" stroke-width="30" d=" M74.24600219726562,63.12799835205078 C74.24600219726562,63.12799835205078 74.24600219726562,63.12799835205078 74.24600219726562,63.12799835205078 C18.656999588012695,85.36299896240234 -43.61399841308594,52.48400115966797 -56.60100173950195,-5.960999965667725 C-56.60100173950195,-5.960999965667725 -74.24600219726562,-85.36399841308594 -74.24600219726562,-85.36399841308594 C-74.24600219726562,-85.36399841308594 74.24600219726562,63.12799835205078 74.24600219726562,63.12799835205078z"></path></g><g opacity="1" transform="matrix(1,0,0,1,390,322.906005859375)"><path stroke-linecap="round" stroke-linejoin="round" fill-opacity="0" stroke="rgb(41,51,87)" stroke-opacity="1" stroke-width="30" d=" M105,-37.90599822998047 C105,-37.90599822998047 105,-37.90599822998047 105,-37.90599822998047 C81.41600036621094,17.124000549316406 14.133999824523926,37.90599822998047 -36.37699890136719,5.763000011444092 C-36.37699890136719,5.763000011444092 -105,-37.90599822998047 -105,-37.90599822998047 C-105,-37.90599822998047 105,-37.90599822998047 105,-37.90599822998047z"></path></g><g opacity="1" transform="matrix(1,0,0,1,370.364013671875,210.75399780273438)"><path stroke-linecap="round" stroke-linejoin="round" fill-opacity="0" stroke="rgb(41,51,87)" stroke-opacity="1" stroke-width="30" d=" M63.12900161743164,-74.24600219726562 C63.12900161743164,-74.24600219726562 63.12900161743164,-74.24600219726562 63.12900161743164,-74.24600219726562 C85.36399841308594,-18.656999588012695 52.48400115966797,43.61399841308594 -5.960999965667725,56.60100173950195 C-5.960999965667725,56.60100173950195 -85.36299896240234,74.24600219726562 -85.36299896240234,74.24600219726562 C-85.36299896240234,74.24600219726562 63.12900161743164,-74.24600219726562 63.12900161743164,-74.24600219726562z"></path></g><g opacity="1" transform="matrix(1,0,0,1,285,285)"><path fill="rgb(255,211,89)" fill-opacity="1" d=" M60,0 C60,33.137001037597656 33.137001037597656,60 0,60 C-33.137001037597656,60 -60,33.137001037597656 -60,0 C-60,-33.137001037597656 -33.137001037597656,-60 0,-60 C33.137001037597656,-60 60,-33.137001037597656 60,0z"></path></g><g opacity="1" transform="matrix(1,0,0,1,315,285)"><path fill="rgb(255,169,64)" fill-opacity="1" d=" M-30,60 C-30,60 -30,60 -30,60 C-30,60 -30,-60 -30,-60 C3.13700008392334,-60 30,-33.137001037597656 30,0 C30,33.137001037597656 3.13700008392334,60 -30,60z"></path></g><g opacity="1" transform="matrix(1,0,0,1,285,285)"><path stroke-linecap="round" stroke-linejoin="round" fill-opacity="0" stroke="rgb(41,51,87)" stroke-opacity="1" stroke-width="30" d=" M60,0 C60,33.137001037597656 33.137001037597656,60 0,60 C-33.137001037597656,60 -60,33.137001037597656 -60,0 C-60,-33.137001037597656 -33.137001037597656,-60 0,-60 C33.137001037597656,-60 60,-33.137001037597656 60,0z"></path></g></g><g transform="matrix(-0.26676592230796814,-0.9637613296508789,0.9637613296508789,-0.26676592230796814,438.9992980957031,1689.1171875)" opacity="1" style="display: block;"><g opacity="1" transform="matrix(1,0,0,1,322.906005859375,180)"><path fill="rgb(255,211,89)" fill-opacity="1" d=" M-37.90599822998047,-105 C-37.90599822998047,-105 -37.90599822998047,-105 -37.90599822998047,-105 C17.124000549316406,-81.41600036621094 37.90599822998047,-14.133999824523926 5.763000011444092,36.37699890136719 C5.763000011444092,36.37699890136719 -37.90599822998047,105 -37.90599822998047,105 C-37.90599822998047,105 -37.90599822998047,-105 -37.90599822998047,-105z"></path></g><g opacity="1" transform="matrix(1,0,0,1,210.75399780273438,199.63600158691406)"><path fill="rgb(255,211,89)" fill-opacity="1" d=" M-74.24600219726562,-63.12900161743164 C-74.24600219726562,-63.12900161743164 -74.24600219726562,-63.12900161743164 -74.24600219726562,-63.12900161743164 C-18.656999588012695,-85.36399841308594 43.61399841308594,-52.483001708984375 56.60100173950195,5.961999893188477 C56.60100173950195,5.961999893188477 74.24600219726562,85.36299896240234 74.24600219726562,85.36299896240234 C74.24600219726562,85.36299896240234 -74.24600219726562,-63.12900161743164 -74.24600219726562,-63.12900161743164z"></path></g><g opacity="1" transform="matrix(1,0,0,1,180,247.093994140625)"><path fill="rgb(255,211,89)" fill-opacity="1" d=" M-105,37.90599822998047 C-105,37.90599822998047 -105,37.90599822998047 -105,37.90599822998047 C-81.41600036621094,-17.124000549316406 -14.133999824523926,-37.90599822998047 36.37699890136719,-5.763000011444092 C36.37699890136719,-5.763000011444092 105,37.90599822998047 105,37.90599822998047 C105,37.90599822998047 -105,37.90599822998047 -105,37.90599822998047z"></path></g><g opacity="1" transform="matrix(1,0,0,1,199.63600158691406,359.24700927734375)"><path fill="rgb(255,211,89)" fill-opacity="1" d=" M-63.12799835205078,74.24600219726562 C-63.12799835205078,74.24600219726562 -63.12799835205078,74.24600219726562 -63.12799835205078,74.24600219726562 C-85.36299896240234,18.656999588012695 -52.483001708984375,-43.61399841308594 5.961999893188477,-56.60100173950195 C5.961999893188477,-56.60100173950195 85.36399841308594,-74.24600219726562 85.36399841308594,-74.24600219726562 C85.36399841308594,-74.24600219726562 -63.12799835205078,74.24600219726562 -63.12799835205078,74.24600219726562z"></path></g><g opacity="1" transform="matrix(1,0,0,1,247.093994140625,390)"><path fill="rgb(255,211,89)" fill-opacity="1" d=" M37.90599822998047,105 C37.90599822998047,105 37.90599822998047,105 37.90599822998047,105 C-17.124000549316406,81.41600036621094 -37.90599822998047,14.133999824523926 -5.763000011444092,-36.37699890136719 C-5.763000011444092,-36.37699890136719 37.90599822998047,-105 37.90599822998047,-105 C37.90599822998047,-105 37.90599822998047,105 37.90599822998047,105z"></path></g><g opacity="1" transform="matrix(1,0,0,1,359.2460021972656,370.364013671875)"><path fill="rgb(255,211,89)" fill-opacity="1" d=" M74.24600219726562,63.12799835205078 C74.24600219726562,63.12799835205078 74.24600219726562,63.12799835205078 74.24600219726562,63.12799835205078 C18.656999588012695,85.36299896240234 -43.61399841308594,52.48400115966797 -56.60100173950195,-5.960999965667725 C-56.60100173950195,-5.960999965667725 -74.24600219726562,-85.36399841308594 -74.24600219726562,-85.36399841308594 C-74.24600219726562,-85.36399841308594 74.24600219726562,63.12799835205078 74.24600219726562,63.12799835205078z"></path></g><g opacity="1" transform="matrix(1,0,0,1,390,322.906005859375)"><path fill="rgb(255,211,89)" fill-opacity="1" d=" M105,-37.90599822998047 C105,-37.90599822998047 105,-37.90599822998047 105,-37.90599822998047 C81.41600036621094,17.124000549316406 14.133999824523926,37.90599822998047 -36.37699890136719,5.763000011444092 C-36.37699890136719,5.763000011444092 -105,-37.90599822998047 -105,-37.90599822998047 C-105,-37.90599822998047 105,-37.90599822998047 105,-37.90599822998047z"></path></g><g opacity="1" transform="matrix(1,0,0,1,370.364013671875,210.75399780273438)"><path fill="rgb(255,211,89)" fill-opacity="1" d=" M63.12900161743164,-74.24600219726562 C63.12900161743164,-74.24600219726562 63.12900161743164,-74.24600219726562 63.12900161743164,-74.24600219726562 C85.36399841308594,-18.656999588012695 52.483001708984375,43.61399841308594 -5.961999893188477,56.60100173950195 C-5.961999893188477,56.60100173950195 -85.36399841308594,74.24600219726562 -85.36399841308594,74.24600219726562 C-85.36399841308594,74.24600219726562 63.12900161743164,-74.24600219726562 63.12900161743164,-74.24600219726562z"></path></g><g opacity="1" transform="matrix(1,0,0,1,322.906005859375,180)"><path stroke-linecap="round" stroke-linejoin="round" fill-opacity="0" stroke="rgb(41,51,87)" stroke-opacity="1" stroke-width="30" d=" M-37.90599822998047,-105 C-37.90599822998047,-105 -37.90599822998047,-105 -37.90599822998047,-105 C17.124000549316406,-81.41600036621094 37.90599822998047,-14.133999824523926 5.763000011444092,36.37699890136719 C5.763000011444092,36.37699890136719 -37.90599822998047,105 -37.90599822998047,105 C-37.90599822998047,105 -37.90599822998047,-105 -37.90599822998047,-105z"></path></g><g opacity="1" transform="matrix(1,0,0,1,210.75399780273438,199.63600158691406)"><path stroke-linecap="round" stroke-linejoin="round" fill-opacity="0" stroke="rgb(41,51,87)" stroke-opacity="1" stroke-width="30" d=" M-74.24600219726562,-63.12900161743164 C-74.24600219726562,-63.12900161743164 -74.24600219726562,-63.12900161743164 -74.24600219726562,-63.12900161743164 C-18.656999588012695,-85.36399841308594 43.61399841308594,-52.483001708984375 56.60100173950195,5.961999893188477 C56.60100173950195,5.961999893188477 74.24600219726562,85.36299896240234 74.24600219726562,85.36299896240234 C74.24600219726562,85.36299896240234 -74.24600219726562,-63.12900161743164 -74.24600219726562,-63.12900161743164z"></path></g><g opacity="1" transform="matrix(1,0,0,1,180,247.093994140625)"><path stroke-linecap="round" stroke-linejoin="round" fill-opacity="0" stroke="rgb(41,51,87)" stroke-opacity="1" stroke-width="30" d=" M-105,37.90599822998047 C-105,37.90599822998047 -105,37.90599822998047 -105,37.90599822998047 C-81.41600036621094,-17.124000549316406 -14.133999824523926,-37.90599822998047 36.37699890136719,-5.763000011444092 C36.37699890136719,-5.763000011444092 105,37.90599822998047 105,37.90599822998047 C105,37.90599822998047 -105,37.90599822998047 -105,37.90599822998047z"></path></g><g opacity="1" transform="matrix(1,0,0,1,199.63600158691406,359.24700927734375)"><path stroke-linecap="round" stroke-linejoin="round" fill-opacity="0" stroke="rgb(41,51,87)" stroke-opacity="1" stroke-width="30" d=" M-63.12799835205078,74.24600219726562 C-63.12799835205078,74.24600219726562 -63.12799835205078,74.24600219726562 -63.12799835205078,74.24600219726562 C-85.36299896240234,18.656999588012695 -52.483001708984375,-43.61399841308594 5.961999893188477,-56.60100173950195 C5.961999893188477,-56.60100173950195 85.36399841308594,-74.24600219726562 85.36399841308594,-74.24600219726562 C85.36399841308594,-74.24600219726562 -63.12799835205078,74.24600219726562 -63.12799835205078,74.24600219726562z"></path></g><g opacity="1" transform="matrix(1,0,0,1,247.093994140625,390)"><path stroke-linecap="round" stroke-linejoin="round" fill-opacity="0" stroke="rgb(41,51,87)" stroke-opacity="1" stroke-width="30" d=" M37.90599822998047,105 C37.90599822998047,105 37.90599822998047,105 37.90599822998047,105 C-17.124000549316406,81.41600036621094 -37.90599822998047,14.133999824523926 -5.763000011444092,-36.37699890136719 C-5.763000011444092,-36.37699890136719 37.90599822998047,-105 37.90599822998047,-105 C37.90599822998047,-105 37.90599822998047,105 37.90599822998047,105z"></path></g><g opacity="1" transform="matrix(1,0,0,1,359.2460021972656,370.364013671875)"><path stroke-linecap="round" stroke-linejoin="round" fill-opacity="0" stroke="rgb(41,51,87)" stroke-opacity="1" stroke-width="30" d=" M74.24600219726562,63.12799835205078 C74.24600219726562,63.12799835205078 74.24600219726562,63.12799835205078 74.24600219726562,63.12799835205078 C18.656999588012695,85.36299896240234 -43.61399841308594,52.48400115966797 -56.60100173950195,-5.960999965667725 C-56.60100173950195,-5.960999965667725 -74.24600219726562,-85.36399841308594 -74.24600219726562,-85.36399841308594 C-74.24600219726562,-85.36399841308594 74.24600219726562,63.12799835205078 74.24600219726562,63.12799835205078z"></path></g><g opacity="1" transform="matrix(1,0,0,1,390,322.906005859375)"><path stroke-linecap="round" stroke-linejoin="round" fill-opacity="0" stroke="rgb(41,51,87)" stroke-opacity="1" stroke-width="30" d=" M105,-37.90599822998047 C105,-37.90599822998047 105,-37.90599822998047 105,-37.90599822998047 C81.41600036621094,17.124000549316406 14.133999824523926,37.90599822998047 -36.37699890136719,5.763000011444092 C-36.37699890136719,5.763000011444092 -105,-37.90599822998047 -105,-37.90599822998047 C-105,-37.90599822998047 105,-37.90599822998047 105,-37.90599822998047z"></path></g><g opacity="1" transform="matrix(1,0,0,1,370.364013671875,210.75399780273438)"><path stroke-linecap="round" stroke-linejoin="round" fill-opacity="0" stroke="rgb(41,51,87)" stroke-opacity="1" stroke-width="30" d=" M63.12900161743164,-74.24600219726562 C63.12900161743164,-74.24600219726562 63.12900161743164,-74.24600219726562 63.12900161743164,-74.24600219726562 C85.36399841308594,-18.656999588012695 52.483001708984375,43.61399841308594 -5.961999893188477,56.60100173950195 C-5.961999893188477,56.60100173950195 -85.36399841308594,74.24600219726562 -85.36399841308594,74.24600219726562 C-85.36399841308594,74.24600219726562 63.12900161743164,-74.24600219726562 63.12900161743164,-74.24600219726562z"></path></g><g opacity="1" transform="matrix(1,0,0,1,285,285)"><path fill="rgb(255,211,89)" fill-opacity="1" d=" M60,0 C60,33.137001037597656 33.137001037597656,60 0,60 C-33.137001037597656,60 -60,33.137001037597656 -60,0 C-60,-33.137001037597656 -33.137001037597656,-60 0,-60 C33.137001037597656,-60 60,-33.137001037597656 60,0z"></path></g><g opacity="1" transform="matrix(1,0,0,1,315,285)"><path fill="rgb(255,169,64)" fill-opacity="1" d=" M-30,60 C-30,60 -30,60 -30,60 C-30,60 -30,-60 -30,-60 C3.13700008392334,-60 30,-33.137001037597656 30,0 C30,33.137001037597656 3.13700008392334,60 -30,60z"></path></g><g opacity="1" transform="matrix(1,0,0,1,285,285)"><path stroke-linecap="round" stroke-linejoin="round" fill-opacity="0" stroke="rgb(41,51,87)" stroke-opacity="1" stroke-width="30" d=" M60,0 C60,33.137001037597656 33.137001037597656,60 0,60 C-33.137001037597656,60 -60,33.137001037597656 -60,0 C-60,-33.137001037597656 -33.137001037597656,-60 0,-60 C33.137001037597656,-60 60,-33.137001037597656 60,0z"></path></g></g><g transform="matrix(1,0,0,1,435.1429443359375,271.7318115234375)" opacity="1" style="display: block;"><g opacity="1" transform="matrix(1,0,0,1,645,285)"><path fill="rgb(233,242,255)" fill-opacity="1" d=" M540,210 C540,210 -540,210 -540,210 C-556.5679931640625,210 -570,196.56900024414062 -570,180 C-570,180 -570,-180 -570,-180 C-570,-196.5679931640625 -556.5679931640625,-210 -540,-210 C-540,-210 540,-210 540,-210 C556.5689697265625,-210 570,-196.5679931640625 570,-180 C570,-180 570,180 570,180 C570,196.56900024414062 556.5689697265625,210 540,210z"></path></g><g opacity="1" transform="matrix(1,0,0,1,1185,285)"><path fill="rgb(185,215,255)" fill-opacity="1" d=" M0,210 C0,210 -30,210 -30,210 C-30,210 -30,-210 -30,-210 C-30,-210 0,-210 0,-210 C16.569000244140625,-210 30,-196.5679931640625 30,-180 C30,-180 30,180 30,180 C30,196.56900024414062 16.569000244140625,210 0,210z"></path></g><g opacity="1" transform="matrix(1,0,0,1,105,285)"><path fill="rgb(255,255,255)" fill-opacity="1" d=" M30,210 C30,210 0,210 0,210 C-16.56800079345703,210 -30,196.56900024414062 -30,180 C-30,180 -30,-180 -30,-180 C-30,-196.5679931640625 -16.56800079345703,-210 0,-210 C0,-210 30,-210 30,-210 C30,-210 30,210 30,210z"></path></g><g opacity="1" transform="matrix(1,0,0,1,345,285)"><path fill="rgb(255,255,255)" fill-opacity="1" d=" M30,210 C30,210 -30,210 -30,210 C-30,210 -30,-210 -30,-210 C-30,-210 30,-210 30,-210 C30,-210 30,210 30,210z"></path></g><g opacity="1" transform="matrix(1,0,0,1,195,150)"><path fill="rgb(255,255,255)" fill-opacity="1" d=" M30,30 C30,30 -30,30 -30,30 C-30,30 -30,-30 -30,-30 C-30,-30 30,-30 30,-30 C30,-30 30,30 30,30z"></path></g><g opacity="1" transform="matrix(1,0,0,1,195,240)"><path fill="rgb(255,255,255)" fill-opacity="1" d=" M30,30 C30,30 -30,30 -30,30 C-30,30 -30,-30 -30,-30 C-30,-30 30,-30 30,-30 C30,-30 30,30 30,30z"></path></g><g opacity="1" transform="matrix(1,0,0,1,645,285)"><path stroke-linecap="round" stroke-linejoin="round" fill-opacity="0" stroke="rgb(41,51,87)" stroke-opacity="1" stroke-width="30" d=" M540,210 C540,210 -540,210 -540,210 C-556.5679931640625,210 -570,196.56900024414062 -570,180 C-570,180 -570,-180 -570,-180 C-570,-196.5679931640625 -556.5679931640625,-210 -540,-210 C-540,-210 540,-210 540,-210 C556.5689697265625,-210 570,-196.5679931640625 570,-180 C570,-180 570,180 570,180 C570,196.56900024414062 556.5689697265625,210 540,210z"></path></g></g><g transform="matrix(1,0,0,1,622.6429443359375,403.7318115234375)" opacity="1" style="display: block;"><g opacity="1" transform="matrix(1,0,0,1,90,150)"><path stroke-linecap="round" stroke-linejoin="round" fill-opacity="0" stroke="rgb(41,51,87)" stroke-opacity="1" stroke-width="30" d=" M-15,-60 C-15,-60 15,-75 15,-75 C15,-75 15,75 15,75"></path></g><g opacity="1" transform="matrix(1,0,0,1,195,150)"><path stroke-linecap="round" stroke-linejoin="round" fill-opacity="0" stroke="rgb(41,51,87)" stroke-opacity="1" stroke-width="30" d=" M-45,-75 C-45,-75 45,-75 45,-75 C45,-75 45,0 45,0 C45,0 -45,0 -45,0 C-45,0 -45,75 -45,75 C-45,75 45,75 45,75"></path></g><g opacity="1" transform="matrix(1,0,0,1,330,150)"><path stroke-linecap="round" stroke-linejoin="round" fill-opacity="0" stroke="rgb(41,51,87)" stroke-opacity="1" stroke-width="30" d=" M45,75 C45,75 -45,75 -45,75 C-45,75 -45,-75 -45,-75 C-45,-75 45,-75 45,-75 C45,-75 45,75 45,75z"></path></g><g opacity="1" transform="matrix(1,0,0,1,795,150)"><path stroke-linecap="round" stroke-linejoin="round" fill-opacity="0" stroke="rgb(41,51,87)" stroke-opacity="1" stroke-width="30" d=" M45,-75 C45,-75 -45,-75 -45,-75 C-45,-75 -45,0 -45,0 C-45,0 45,0 45,0 C45,0 45,75 45,75 C45,75 -45,75 -45,75"></path></g><g opacity="1" transform="matrix(1,0,0,1,0,0)"><path stroke-linecap="round" stroke-linejoin="round" fill-opacity="0" stroke="rgb(41,51,87)" stroke-opacity="1" stroke-width="30" d=" M480,75 C480,75 480,225 480,225"></path></g><g opacity="1" transform="matrix(1,0,0,1,0,0)"><path stroke-linecap="round" stroke-linejoin="round" fill-opacity="0" stroke="rgb(41,51,87)" stroke-opacity="1" stroke-width="30" d=" M570,75 C570,75 480,75 480,75"></path></g><g opacity="1" transform="matrix(1,0,0,1,0,0)"><path stroke-linecap="round" stroke-linejoin="round" fill-opacity="0" stroke="rgb(41,51,87)" stroke-opacity="1" stroke-width="30" d=" M570,150 C570,150 480,150 480,150"></path></g><g opacity="1" transform="matrix(1,0,0,1,0,0)"><path stroke-linecap="round" stroke-linejoin="round" fill-opacity="0" stroke="rgb(41,51,87)" stroke-opacity="1" stroke-width="30" d=" M615,75 C615,75 615,225 615,225"></path></g><g opacity="1" transform="matrix(1,0,0,1,660,112.5)"><path stroke-linecap="round" stroke-linejoin="round" fill-opacity="0" stroke="rgb(41,51,87)" stroke-opacity="1" stroke-width="30" d=" M-45,-37.5 C-45,-37.5 45,-37.5 45,-37.5 C45,-37.5 45,37.5 45,37.5 C45,37.5 -45,37.5 -45,37.5"></path></g></g></g></svg>