<svg width="393" height="167" viewBox="0 0 393 167" fill="none" xmlns="http://www.w3.org/2000/svg">
<path d="M0.65625 66V0.375H5.625V66H0.65625ZM9.9375 66.0938V61.5H17.8125C22.6875 61.5 26.7188 60.5 29.9062 58.5C34.0312 55.8125 36.0938 51.9062 36.0938 46.7812C36.0938 46.1562 36.0625 45.5625 36 45C35.3125 38.5625 31.0312 35.3438 23.1562 35.3438H9.9375V30.75H23.1562C31.4688 30.6875 35.6875 26.9062 35.8125 19.4062C35.8125 17.0312 35.2188 14.7188 34.0312 12.4688C31.3438 7.46875 26.8438 4.96875 20.5312 4.96875H9.9375V0.375H20.9062C26.6562 0.375 31.3438 2.0625 34.9688 5.4375C38.8438 9.0625 40.7812 13.6875 40.7812 19.3125C40.7812 19.6875 40.7812 20.0938 40.7812 20.5312C40.4688 25.8438 38.3125 30 34.3125 33C34.8125 33.4375 35.3125 33.875 35.8125 34.3125C39.3125 37.5 41.0625 41.6875 41.0625 46.875C41.0625 51.375 39.75 55.3438 37.125 58.7812C33.375 63.6562 28.0938 66.0938 21.2812 66.0938H9.9375ZM48.2812 52.5938V30.2812C48.2812 27.3438 49.5938 24.5 52.2188 21.75C55.3438 18.5625 59.2188 16.9688 63.8438 16.9688V21.6562C59.6562 21.6562 56.5312 23.4062 54.4688 26.9062C53.5938 28.4688 53.1562 30 53.1562 31.5V51.375C53.1562 53.875 54.3438 56.25 56.7188 58.5C58.8438 60.4375 61.2188 61.4062 63.8438 61.4062V66.0938C58.0312 66.0938 53.5938 63.75 50.5312 59.0625C49.0312 56.8125 48.2812 54.6562 48.2812 52.5938ZM67.7812 66.0938V61.4062C71.6562 61.4062 74.5938 59.625 76.5938 56.0625C77.5312 54.5 78 53 78 51.5625V31.5C78 28.75 76.8125 26.3125 74.4375 24.1875C72.5 22.5 70.2812 21.6562 67.7812 21.6562V16.9688C73.4062 16.9688 77.7188 19.25 80.7188 23.8125C82.1562 26.0625 82.875 28.2188 82.875 30.2812V52.5938C82.875 55.5938 81.5938 58.4688 79.0312 61.2188C76.0312 64.4062 72.2812 66.0312 67.7812 66.0938ZM88.2188 22.6875V17.9062H94.2188V0.1875H99.0938V17.9062H105.094V22.6875H99.0938V50.9062C99.0938 56.0938 100.844 59.3125 104.344 60.5625C105.781 61 107.438 61.2188 109.312 61.2188H109.688L110.812 66H108.844C101.281 65.9375 96.6875 63 95.0625 57.1875C94.5 55.1875 94.2188 52.8125 94.2188 50.0625V22.6875H88.2188ZM112.688 22.6875V17.9062H118.688V0.1875H123.562V17.9062H129.562V22.6875H123.562V50.9062C123.562 56.0938 125.312 59.3125 128.812 60.5625C130.25 61 131.906 61.2188 133.781 61.2188H134.156L135.281 66H133.312C125.75 65.9375 121.156 63 119.531 57.1875C118.969 55.1875 118.688 52.8125 118.688 50.0625V22.6875H112.688ZM139.312 66V0.375H144.375V66H139.312ZM152.062 52.5938V30.1875C152.125 27.25 153.5 24.4375 156.188 21.75C159.25 18.5625 163.031 16.9688 167.531 16.9688V21.5625C163.969 21.5625 161.031 23.1562 158.719 26.3438C157.531 27.9688 156.938 29.5 156.938 30.9375V38.3438H182.438V30.9375C182.438 27.8125 180.906 25.2812 177.844 23.3438C175.906 22.0938 173.906 21.4688 171.844 21.4688V16.9688C176.031 16.9688 179.781 18.5 183.094 21.5625C185.844 24.1875 187.25 27.0312 187.312 30.0938V43.0312H156.938V52.5938C156.938 54.5312 158.125 56.5312 160.5 58.5938C162.75 60.4688 165.125 61.4062 167.625 61.4062V66C162.125 66 157.781 63.75 154.594 59.25C152.906 56.875 152.062 54.6562 152.062 52.5938ZM171.844 66V61.125C175.906 61.125 179.094 59.4062 181.406 55.9688C182.094 54.9062 182.562 53.9062 182.812 52.9688L187.406 54.5625C186.031 59.125 183.25 62.4062 179.062 64.4062C176.812 65.4688 174.406 66 171.844 66ZM194.625 66V30.1875C194.625 27.1875 195.969 24.2812 198.656 21.4688C201.844 18.2812 205.75 16.6875 210.375 16.6875V21.5625C206.938 21.5625 204.031 22.9062 201.656 25.5938C200.219 27.2812 199.5 29 199.5 30.75V66H194.625ZM214.406 21.5625V16.6875C220.031 16.6875 224.469 19 227.719 23.625C229.344 25.9375 230.156 28.125 230.156 30.1875V66H225.188V30.75C225.188 28.75 224.156 26.75 222.094 24.75C219.906 22.625 217.344 21.5625 214.406 21.5625ZM237.469 52.5938V30.1875C237.531 27.25 238.906 24.4375 241.594 21.75C244.656 18.5625 248.438 16.9688 252.938 16.9688V21.5625C249.375 21.5625 246.438 23.1562 244.125 26.3438C242.938 27.9688 242.344 29.5 242.344 30.9375V38.3438H267.844V30.9375C267.844 27.8125 266.312 25.2812 263.25 23.3438C261.312 22.0938 259.312 21.4688 257.25 21.4688V16.9688C261.438 16.9688 265.188 18.5 268.5 21.5625C271.25 24.1875 272.656 27.0312 272.719 30.0938V43.0312H242.344V52.5938C242.344 54.5312 243.531 56.5312 245.906 58.5938C248.156 60.4688 250.531 61.4062 253.031 61.4062V66C247.531 66 243.188 63.75 240 59.25C238.312 56.875 237.469 54.6562 237.469 52.5938ZM257.25 66V61.125C261.312 61.125 264.5 59.4062 266.812 55.9688C267.5 54.9062 267.969 53.9062 268.219 52.9688L272.812 54.5625C271.438 59.125 268.656 62.4062 264.469 64.4062C262.219 65.4688 259.812 66 257.25 66ZM280.219 52.5938V30.5625C280.219 28.3125 280.938 26.0312 282.375 23.7188C285.312 19.2188 289.656 16.9688 295.406 16.9688V21.6562C292.969 21.6562 290.75 22.4688 288.75 24.0938C286.312 26.0938 285.094 28.3438 285.094 30.8438V52.5938C285.094 53.9062 285.594 55.2812 286.594 56.7188C288.719 59.7812 291.625 61.3125 295.312 61.3125V66C290.688 66 286.938 64.5625 284.062 61.6875C281.5 59 280.219 55.9688 280.219 52.5938ZM299.531 21.75V16.9688C302.656 16.9688 305.5 17.9375 308.062 19.875C311.688 22.625 313.5 26.2188 313.5 30.6562L308.812 32.3438V30.6562C308.625 28.7812 308.031 27.125 307.031 25.6875C305.219 23.0625 302.719 21.75 299.531 21.75ZM299.438 66.0938V61.4062C301.125 61.4062 302.75 61 304.312 60.1875C307.562 58.375 309.406 55.6875 309.844 52.125C309.844 52 309.844 51.75 309.844 51.375C309.906 50.9375 309.938 50.6562 309.938 50.5312L314.531 52.3125C314.594 55.5625 313.375 58.5 310.875 61.125C307.688 64.4375 303.875 66.0938 299.438 66.0938ZM321 66V0.375H325.969V66H321ZM328.125 41.5312L352.125 17.1562H358.781L334.781 41.5312L358.781 66H352.125L328.125 41.5312ZM22.125 149.031V117.438C22.125 113.812 23.4688 110.281 26.1562 106.844C29.7188 102.281 34.5312 99.9688 40.5938 99.9062V113.125C37.9688 113.188 36.2812 114.406 35.5312 116.781C35.4062 117.031 35.3438 117.25 35.3438 117.438V149.031C35.3438 150.031 35.875 151 36.9375 151.938C37.9375 152.812 39.1562 153.25 40.5938 153.25V166.469C33.5938 166.469 28.3125 163.531 24.75 157.656C23 154.656 22.125 151.781 22.125 149.031ZM45.6562 166.469V153.25C45.6562 153.25 46.375 152.969 47.8125 152.406C48.6875 151.781 49.2812 151.125 49.5938 150.438C49.9062 149.625 50.0625 148.469 50.0625 146.969V145.844L63 148.938C63 154.375 60.8125 158.875 56.4375 162.438C53.125 165.125 49.5312 166.469 45.6562 166.469ZM45.6562 113.125V99.9062C50.2188 99.9062 54.3438 101.906 58.0312 105.906C61.3438 109.531 63 113.438 63 117.625L50.0625 121V119.594C50.0625 118.031 49.9062 116.875 49.5938 116.125C49.3438 115.5 48.875 114.938 48.1875 114.438C47.5625 113.938 47 113.594 46.5 113.406L45.6562 113.125ZM67.2188 153.625V148.844C67.2812 144.844 68.9688 141.75 72.2812 139.562C73.0938 139.125 76.375 137.906 82.125 135.906C88.8125 133.656 92.1562 131.656 92.1562 129.906V127.75C92.0938 125.5 90.7188 124.281 88.0312 124.094V112.562C92.7188 112.562 96.6562 114.156 99.8438 117.344C102.719 120.281 104.156 123.469 104.156 126.906V151.375C104.219 153.25 105.094 154.25 106.781 154.375V166C102.969 166 99.9062 165 97.5938 163C95.1562 164.938 92 165.938 88.125 166V154.469C88.625 154.469 89.0938 154.406 89.5312 154.281C91.2812 153.781 92.1562 152.594 92.1562 150.719V143.031C90.4688 144.031 87.1875 145.219 82.3125 146.594C80.3125 147.094 79.1562 147.438 78.8438 147.625C78.0938 148 77.6875 148.719 77.625 149.781V151.094C77.625 151.469 77.6562 151.844 77.7188 152.219C78.0938 153.719 79.875 154.469 83.0625 154.469V166C78.875 166 75.3125 164.938 72.375 162.812C68.9375 160.312 67.2188 157.25 67.2188 153.625ZM67.875 125.969C67.9375 122.781 69.25 119.875 71.8125 117.25C75.0625 114.125 78.8438 112.562 83.1562 112.562V124.094C80.2812 124.156 78.8125 126.156 78.75 130.094L67.875 125.969ZM113.062 166V98.875H126.562V166H113.062ZM134.062 151.469V126.906C134.125 123.656 135.5 120.594 138.188 117.719C141.438 114.281 145.594 112.562 150.656 112.562V124.562C148.031 124.75 146.594 125.594 146.344 127.094V151.469C146.344 152.969 147.438 153.812 149.625 154C150 154.062 150.375 154.094 150.75 154.094V166C144.125 166 139.25 163.406 136.125 158.219C134.75 155.906 134.062 153.656 134.062 151.469ZM154.969 124.656V112.562C159.906 112.562 163.906 114.469 166.969 118.281C169.156 120.969 170.25 124 170.25 127.375L158.812 131.781V128.688C158.688 126.062 157.406 124.719 154.969 124.656ZM154.969 166.094V154C157.656 154 159.219 153.281 159.656 151.844C159.844 151.281 159.938 150.625 159.938 149.875V146.781L171.375 151.188C171.438 155.438 169.5 159.156 165.562 162.344C162.312 164.969 158.781 166.219 154.969 166.094ZM176.812 151.844V112.562H189.562V150.344C189.688 152.719 191.125 153.938 193.875 154V166.469C187.75 166.469 182.969 164.062 179.531 159.25C177.719 156.688 176.812 154.219 176.812 151.844ZM198.188 166.469V154C200.875 153.688 202.344 152.469 202.594 150.344V112.562H215.344V151.844C215.344 154.781 213.969 157.75 211.219 160.75C207.719 164.5 203.375 166.406 198.188 166.469ZM222.844 166V98.875H236.344V166H222.844ZM242.625 153.625V148.844C242.688 144.844 244.375 141.75 247.688 139.562C248.5 139.125 251.781 137.906 257.531 135.906C264.219 133.656 267.562 131.656 267.562 129.906V127.75C267.5 125.5 266.125 124.281 263.438 124.094V112.562C268.125 112.562 272.062 114.156 275.25 117.344C278.125 120.281 279.562 123.469 279.562 126.906V151.375C279.625 153.25 280.5 154.25 282.188 154.375V166C278.375 166 275.312 165 273 163C270.562 164.938 267.406 165.938 263.531 166V154.469C264.031 154.469 264.5 154.406 264.938 154.281C266.688 153.781 267.562 152.594 267.562 150.719V143.031C265.875 144.031 262.594 145.219 257.719 146.594C255.719 147.094 254.562 147.438 254.25 147.625C253.5 148 253.094 148.719 253.031 149.781V151.094C253.031 151.469 253.062 151.844 253.125 152.219C253.5 153.719 255.281 154.469 258.469 154.469V166C254.281 166 250.719 164.938 247.781 162.812C244.344 160.312 242.625 157.25 242.625 153.625ZM243.281 125.969C243.344 122.781 244.656 119.875 247.219 117.25C250.469 114.125 254.25 112.562 258.562 112.562V124.094C255.688 124.156 254.219 126.156 254.156 130.094L243.281 125.969ZM285.844 124.656V112.562H292.406V98.875H304.969V112.562H311.156V124.75H304.969V149.594C305.094 151.844 306.25 153 308.438 153.062H311.156L313.969 166H308.344C300.156 166 295.156 162.906 293.344 156.719C292.719 154.469 292.406 151.781 292.406 148.656V124.656H285.844ZM318.469 151.469V127C318.469 123.938 319.812 120.938 322.5 118C325.875 114.438 330.156 112.625 335.344 112.562V124.75C332.531 125 331.031 126.188 330.844 128.312V150.156C330.969 152.594 332.469 153.844 335.344 153.906V166.094C329.219 166.094 324.469 163.625 321.094 158.688C319.344 156.125 318.469 153.719 318.469 151.469ZM339.656 166.094V153.906C342.281 153.594 343.719 152.406 343.969 150.344L343.875 128.312C343.438 126.062 342 124.875 339.562 124.75V112.562C345.438 112.562 350.031 114.938 353.344 119.688C355.094 122.25 355.969 124.688 355.969 127V151.469C355.969 154.594 354.625 157.656 351.938 160.656C348.688 164.219 344.594 166.031 339.656 166.094ZM363.469 166V112.562H376.219V118.469C378.406 115.656 381.375 113.719 385.125 112.656C386.438 112.281 387.75 112.094 389.062 112.094H392.438L389.531 124.656C385.594 124.719 382.188 126.438 379.312 129.812C377.25 132.25 376.219 134.781 376.219 137.406V166H363.469Z" fill="black"/>
</svg>
